<svg width="35" height="35" viewBox="0 0 35 35" fill="none" xmlns="http://www.w3.org/2000/svg">
<path d="M17.4998 2.9751C9.479 2.9751 2.9165 9.52301 2.9165 17.5876C2.9165 24.8793 8.254 30.9314 15.2248 32.0251V21.8168H11.5207V17.5876H15.2248V14.3647C15.2248 10.7043 17.3978 8.69176 20.7373 8.69176C22.3269 8.69176 23.9894 8.96885 23.9894 8.96885V12.5709H22.1519C20.3436 12.5709 19.7748 13.6938 19.7748 14.846V17.5876H23.829L23.1728 21.8168H19.7748V32.0251C23.2113 31.4823 26.3405 29.729 28.5976 27.0814C30.8547 24.4339 32.091 21.0666 32.0832 17.5876C32.0832 9.52301 25.5207 2.9751 17.4998 2.9751Z" fill="#F3E8D2"/>
</svg>
