<svg width="35" height="35" viewBox="0 0 35 35" fill="none" xmlns="http://www.w3.org/2000/svg">
<path fill-rule="evenodd" clip-rule="evenodd" d="M17.5 26.25C22.3325 26.25 26.25 22.3325 26.25 17.5C26.25 12.6675 22.3325 8.75 17.5 8.75C12.6675 8.75 8.75 12.6675 8.75 17.5C8.75 22.3325 12.6675 26.25 17.5 26.25ZM17.5 23.3333C20.7216 23.3333 23.3333 20.7216 23.3333 17.5C23.3333 14.2783 20.7216 11.6667 17.5 11.6667C14.2783 11.6667 11.6667 14.2783 11.6667 17.5C11.6667 20.7216 14.2783 23.3333 17.5 23.3333Z" fill="#F3E8D2"/>
<path d="M26.2498 7.2915C25.4444 7.2915 24.7915 7.94443 24.7915 8.74984C24.7915 9.55525 25.4444 10.2082 26.2498 10.2082C27.0553 10.2082 27.7082 9.55525 27.7082 8.74984C27.7082 7.94443 27.0553 7.2915 26.2498 7.2915Z" fill="#F3E8D2"/>
<path fill-rule="evenodd" clip-rule="evenodd" d="M2.41219 6.23608C1.4585 8.10781 1.4585 10.558 1.4585 15.4585V19.5418C1.4585 24.4423 1.4585 26.8926 2.41219 28.7642C3.25108 30.4106 4.58965 31.7493 6.23608 32.5881C8.10781 33.5418 10.558 33.5418 15.4585 33.5418H19.5418C24.4423 33.5418 26.8926 33.5418 28.7642 32.5881C30.4106 31.7493 31.7493 30.4106 32.5881 28.7642C33.5418 26.8926 33.5418 24.4423 33.5418 19.5418V15.4585C33.5418 10.558 33.5418 8.10781 32.5881 6.23608C31.7493 4.58965 30.4106 3.25108 28.7642 2.41219C26.8926 1.4585 24.4423 1.4585 19.5418 1.4585H15.4585C10.558 1.4585 8.10781 1.4585 6.23608 2.41219C4.58965 3.25108 3.25108 4.58965 2.41219 6.23608ZM19.5418 4.37516H15.4585C12.9601 4.37516 11.2618 4.37744 9.94903 4.48468C8.67031 4.58916 8.01639 4.77852 7.56022 5.01095C6.46261 5.57022 5.57022 6.46261 5.01095 7.56022C4.77852 8.01639 4.58916 8.67031 4.48468 9.94903C4.37744 11.2618 4.37516 12.9601 4.37516 15.4585V19.5418C4.37516 22.0402 4.37744 23.7385 4.48468 25.0513C4.58916 26.3301 4.77852 26.984 5.01095 27.4402C5.57022 28.5377 6.46261 29.4301 7.56022 29.9893C8.01639 30.2218 8.67031 30.4112 9.94903 30.5156C11.2618 30.6228 12.9601 30.6252 15.4585 30.6252H19.5418C22.0402 30.6252 23.7385 30.6228 25.0513 30.5156C26.3301 30.4112 26.984 30.2218 27.4402 29.9893C28.5377 29.4301 29.4301 28.5377 29.9893 27.4402C30.2218 26.984 30.4112 26.3301 30.5156 25.0513C30.6228 23.7385 30.6252 22.0402 30.6252 19.5418V15.4585C30.6252 12.9601 30.6228 11.2618 30.5156 9.94903C30.4112 8.67031 30.2218 8.01639 29.9893 7.56022C29.4301 6.46261 28.5377 5.57022 27.4402 5.01095C26.984 4.77852 26.3301 4.58916 25.0513 4.48468C23.7385 4.37744 22.0402 4.37516 19.5418 4.37516Z" fill="#F3E8D2"/>
</svg>
