<svg width="74" height="21" viewBox="0 0 74 21" fill="none" xmlns="http://www.w3.org/2000/svg">
<path d="M4.51672 0V16.7638C4.51672 17.5939 4.56452 18.2188 4.66011 18.6416C4.7557 19.0645 4.95884 19.3505 5.26951 19.4997C5.58018 19.649 6.03723 19.7391 6.64364 19.7733V20.6438H0.0477971V19.7733C0.684081 19.7391 1.16204 19.649 1.48168 19.4997C1.80131 19.3505 2.01639 19.0769 2.12692 18.6789C2.23745 18.281 2.29421 17.6996 2.29421 16.9379V6.21802C2.29421 5.32263 2.28226 4.57336 2.25836 3.9671C2.23446 3.36084 2.19862 2.95045 2.15082 2.73593C2.07017 2.35352 1.88495 2.09858 1.58922 1.9649C1.29348 1.83121 0.764736 1.76592 0 1.76592V0.920269L4.51672 0Z" fill="#F3E8D2"/>
<path d="M54.1169 13.5055V16.6643C54.1169 17.5752 54.1528 18.2468 54.2244 18.6789C54.2961 19.1111 54.4724 19.3878 54.7502 19.5121C55.028 19.6365 55.4701 19.7235 56.0765 19.7733V20.6438H49.7197V19.7733C50.341 19.7235 50.7951 19.6365 51.0819 19.5121C51.3686 19.3878 51.5568 19.1235 51.6435 18.7162C51.7301 18.309 51.7749 17.6934 51.7749 16.8633V13.6796C51.7749 12.7345 51.763 11.9417 51.7391 11.3044C51.7152 10.667 51.6703 10.238 51.6076 10.0234C51.527 9.59129 51.3686 9.31769 51.1297 9.20266C50.8907 9.08763 50.4038 9.02856 49.6719 9.02856V8.15803L53.5673 7.21289L53.8779 9.7001H53.9974C54.7144 8.85445 55.4671 8.22954 56.2558 7.82226C57.0444 7.41498 57.9167 7.21289 58.8726 7.21289C59.8763 7.21289 60.7247 7.42741 61.4177 7.85957C62.1108 8.29172 62.5858 8.89487 62.8397 9.67523H62.9353C63.5238 8.89487 64.2467 8.29172 65.098 7.85957C65.9494 7.42741 66.8456 7.21289 67.7866 7.21289C68.5364 7.21289 69.2175 7.34036 69.8298 7.59841C70.4422 7.85646 70.9082 8.20777 71.2279 8.65547C71.5146 9.03788 71.7178 9.53843 71.8373 10.1602C71.9568 10.782 72.0165 11.6308 72.0165 12.7096V16.6643C72.0165 17.5752 72.0553 18.2437 72.136 18.6665C72.2167 19.0893 72.3959 19.366 72.6737 19.4997C72.9515 19.6334 73.3936 19.7235 74 19.7733V20.6438H67.6432V19.7733C68.2496 19.7391 68.6947 19.6583 68.9815 19.5246C69.2682 19.3909 69.4564 19.1235 69.5431 18.7162C69.6297 18.309 69.6745 17.6934 69.6745 16.8633V13.7294C69.6745 11.8236 69.4684 10.4867 69.0532 9.72497C68.6379 8.96326 67.915 8.58086 66.8784 8.58086C66.1944 8.58086 65.5401 8.78294 64.9188 9.19022C64.2975 9.5975 63.8105 10.1385 63.461 10.8193C63.3505 11.0339 63.2668 11.2515 63.2101 11.466C63.1533 11.6805 63.1145 11.9417 63.0906 12.2495C63.0667 12.5573 63.0548 12.9739 63.0548 13.5055V16.6643C63.0548 17.5752 63.0936 18.2437 63.1742 18.6665C63.2549 19.0893 63.4341 19.366 63.7119 19.4997C63.9898 19.6334 64.4408 19.7235 65.0622 19.7733V20.6438H58.7053V19.7733C59.3117 19.7235 59.7568 19.6365 60.0436 19.5121C60.3304 19.3878 60.5126 19.1235 60.5933 18.7162C60.6739 18.309 60.7128 17.6934 60.7128 16.8633V13.7294C60.7128 12.436 60.6261 11.4163 60.4499 10.6701C60.2736 9.92395 59.9869 9.3892 59.5895 9.06586C59.1922 8.74253 58.6486 8.58086 57.9645 8.58086C57.2804 8.58086 56.5933 8.78294 55.9571 9.19022C55.3208 9.5975 54.8428 10.1385 54.5232 10.8193C54.4126 11.0339 54.329 11.2515 54.2722 11.466C54.2155 11.6805 54.1766 11.9417 54.1527 12.2495C54.1289 12.5573 54.1169 12.9739 54.1169 13.5055Z" fill="#F3E8D2"/>
<path d="M42.2994 9.14066C44.7698 9.14066 46.7803 11.233 46.7803 13.8042C46.7803 16.3753 44.7698 18.4677 42.2994 18.4677H28.3937C25.9233 18.4677 23.9129 16.3753 23.9129 13.8042C23.9129 11.233 25.9233 9.14066 28.3937 9.14066H42.2994ZM42.2994 6.96436H28.3937C24.7642 6.96436 21.8218 10.0267 21.8218 13.8042C21.8218 17.5816 24.7642 20.644 28.3937 20.644H42.2994C45.9289 20.644 48.8713 17.5816 48.8713 13.8042C48.8713 10.0267 45.9289 6.96436 42.2994 6.96436Z" fill="#F3E8D2"/>
<path d="M14.4283 9.14066C16.8987 9.14066 18.9091 11.233 18.9091 13.8042C18.9091 16.3753 16.8987 18.4677 14.4283 18.4677H14.0549C11.5844 18.4677 9.57399 16.3753 9.57399 13.8042C9.57399 11.233 11.5844 9.14066 14.0549 9.14066H14.4283ZM14.4283 6.96436H14.0549C10.4254 6.96436 7.48291 10.0267 7.48291 13.8042C7.48291 17.5816 10.4254 20.644 14.0549 20.644H14.4283C18.0578 20.644 21.0002 17.5816 21.0002 13.8042C21.0002 10.0267 18.0578 6.96436 14.4283 6.96436Z" fill="#F3E8D2"/>
</svg>
