<svg width="165" height="47" viewBox="0 0 165 47" fill="none" xmlns="http://www.w3.org/2000/svg">
<path d="M10.0711 0V37.3788C10.0711 39.2297 10.1777 40.6231 10.3908 41.5659C10.6039 42.5087 11.0569 43.1464 11.7496 43.4792C12.4423 43.8119 13.4614 44.013 14.8136 44.0892V46.0303H0.106575V44.0892C1.52532 44.013 2.59104 43.8119 3.30374 43.4792C4.01644 43.1464 4.49602 42.5364 4.74247 41.6491C4.98892 40.7617 5.11547 39.4654 5.11547 37.767V13.8645C5.11547 11.868 5.08883 10.1974 5.03554 8.84558C4.98225 7.49379 4.90233 6.57872 4.79576 6.1004C4.61592 5.24773 4.20295 4.67929 3.54353 4.3812C2.88411 4.08311 1.70516 3.93753 0 3.93753V2.05196L10.0711 0Z" fill="#8E8C6F"/>
<path d="M120.666 30.1137V37.1569C120.666 39.1881 120.746 40.6854 120.906 41.649C121.066 42.6126 121.459 43.2296 122.078 43.5069C122.698 43.7841 123.683 43.9782 125.036 44.0892V46.0302H110.861V44.0892C112.247 43.9782 113.259 43.7841 113.899 43.5069C114.538 43.2296 114.958 42.6403 115.151 41.7322C115.344 40.8241 115.444 39.4515 115.444 37.6006V30.5019C115.444 28.3945 115.417 26.6268 115.364 25.2057C115.311 23.7846 115.211 22.8279 115.071 22.3496C114.891 21.386 114.538 20.776 114.005 20.5195C113.472 20.263 112.387 20.1313 110.755 20.1313V18.1902L119.441 16.0828L120.133 21.6286H120.4C121.998 19.743 123.677 18.3497 125.435 17.4415C127.194 16.5334 129.139 16.0828 131.27 16.0828C133.508 16.0828 135.4 16.5611 136.945 17.5247C138.49 18.4883 139.549 19.8332 140.116 21.5732H140.329C141.641 19.8332 143.253 18.4883 145.151 17.5247C147.049 16.5611 149.048 16.0828 151.146 16.0828C152.818 16.0828 154.336 16.367 155.702 16.9424C157.067 17.5178 158.106 18.3011 158.819 19.2994C159.458 20.1521 159.911 21.2682 160.178 22.6546C160.444 24.0411 160.577 25.9336 160.577 28.3391V37.1569C160.577 39.1881 160.664 40.6785 160.844 41.6213C161.024 42.5641 161.423 43.1811 162.043 43.4791C162.662 43.7772 163.648 43.9782 165 44.0892V46.0302H150.826V44.0892C152.178 44.0129 153.171 43.8327 153.81 43.5346C154.45 43.2365 154.869 42.6403 155.062 41.7322C155.256 40.8241 155.355 39.4515 155.355 37.6006V30.6128C155.355 26.3634 154.896 23.3825 153.97 21.6841C153.044 19.9857 151.432 19.133 149.121 19.133C147.596 19.133 146.137 19.5836 144.751 20.4917C143.366 21.3999 142.28 22.6061 141.501 24.1242C141.255 24.6026 141.068 25.0878 140.941 25.5662C140.815 26.0445 140.728 26.6268 140.675 27.3131C140.622 27.9994 140.595 28.9283 140.595 30.1137V37.1569C140.595 39.1881 140.682 40.6785 140.862 41.6213C141.041 42.5641 141.441 43.1811 142.061 43.4791C142.68 43.7772 143.686 43.9782 145.071 44.0892V46.0302H130.897V44.0892C132.249 43.9782 133.242 43.7841 133.881 43.5069C134.521 43.2296 134.927 42.6403 135.107 41.7322C135.286 40.8241 135.373 39.4515 135.373 37.6006V30.6128C135.373 27.729 135.18 25.4552 134.787 23.7915C134.394 22.1278 133.755 20.9354 132.869 20.2144C131.983 19.4935 130.771 19.133 129.245 19.133C127.72 19.133 126.188 19.5836 124.769 20.4917C123.35 21.3999 122.285 22.6061 121.572 24.1242C121.326 24.6026 121.139 25.0878 121.012 25.5662C120.886 26.0445 120.799 26.6268 120.746 27.3131C120.693 27.9994 120.666 28.9283 120.666 30.1137Z" fill="#8E8C6F"/>
<path d="M94.3163 20.3808C99.8248 20.3808 104.307 25.0462 104.307 30.7792C104.307 36.5122 99.8248 41.1776 94.3163 41.1776H63.3104C57.802 41.1776 53.3193 36.5122 53.3193 30.7792C53.3193 25.0462 57.802 20.3808 63.3104 20.3808H94.3163ZM94.3163 15.5282H63.3104C55.2176 15.5282 48.6567 22.3565 48.6567 30.7792C48.6567 39.2019 55.2176 46.0302 63.3104 46.0302H94.3163C102.409 46.0302 108.97 39.2019 108.97 30.7792C108.97 22.3565 102.409 15.5282 94.3163 15.5282Z" fill="#8E8C6F"/>
<path d="M32.1714 20.3808C37.6798 20.3808 42.1625 25.0462 42.1625 30.7792C42.1625 36.5122 37.6798 41.1776 32.1714 41.1776H31.3388C25.8303 41.1776 21.3476 36.5122 21.3476 30.7792C21.3476 25.0462 25.8303 20.3808 31.3388 20.3808H32.1714ZM32.1714 15.5282H31.3388C23.2459 15.5282 16.6851 22.3565 16.6851 30.7792C16.6851 39.2019 23.2459 46.0302 31.3388 46.0302H32.1714C40.2642 46.0302 46.825 39.2019 46.825 30.7792C46.825 22.3565 40.2642 15.5282 32.1714 15.5282Z" fill="#8E8C6F"/>
</svg>
