<svg width="12" height="12" viewBox="0 0 12 12" fill="none" xmlns="http://www.w3.org/2000/svg">
<path d="M11.1429 4.71429C11.3571 4.71429 11.5714 4.82143 11.7321 4.98214C11.8929 5.14286 12 5.35714 12 5.57143V6.42857C12 6.66964 11.8929 6.88393 11.7321 7.04464C11.5714 7.20536 11.3571 7.28571 11.1429 7.28571H7.28571V11.1429C7.28571 11.3839 7.17857 11.5982 7.01786 11.7589C6.85714 11.9196 6.64286 12 6.42857 12H5.57143C5.33036 12 5.11607 11.9196 4.95536 11.7589C4.79464 11.5982 4.71429 11.3839 4.71429 11.1429V7.28571H0.857143C0.616071 7.28571 0.401786 7.20536 0.241071 7.04464C0.0803571 6.88393 0 6.66964 0 6.42857V5.57143C0 5.35714 0.0803571 5.14286 0.241071 4.98214C0.401786 4.82143 0.616071 4.71429 0.857143 4.71429H4.71429V0.857143C4.71429 0.642857 4.79464 0.428571 4.95536 0.267857C5.11607 0.107143 5.33036 0 5.57143 0H6.42857C6.64286 0 6.85714 0.107143 7.01786 0.267857C7.17857 0.428571 7.28571 0.642857 7.28571 0.857143V4.71429H11.1429Z" fill="#8E8C6F"/>
</svg>
