<?xml version="1.0" encoding="UTF-8"?>
<svg version="1.1" xmlns="http://www.w3.org/2000/svg" width="26" height="26">
<path d="M0 0 C3.96220871 3.3961789 4.49510792 4.90778181 5 10.125 C4.88735068 14.43785966 3.45117939 16.95279071 0.625 20.25 C-2.36312362 22.59781141 -5.59411188 22.66825081 -9.34375 22.5703125 C-13.41825238 21.92779482 -16.25254791 19.67857538 -18.75 16.5 C-20.19899408 11.28362133 -20.07553657 7.60103481 -17.625 2.875 C-12.72832137 -2.83779173 -6.58393652 -3.41389301 0 0 Z M-14.375 3.25 C-16.75664192 6.09260487 -17.375 7.53405267 -17.375 11.25 C-16.10575885 15.05772345 -14.50247526 16.76223559 -11.375 19.25 C-7.99204121 20.63788053 -6.71499858 20.37239949 -3.25 19.125 C-0.06621622 17.04861927 1.23137317 15.7750561 2.625 12.25 C2.625 8.2124232 1.90883814 6.60479767 -0.625 3.4375 C-5.77701445 -0.66069331 -8.89330439 -0.32501888 -14.375 3.25 Z " fill="#8D8B6E" transform="translate(20.375,2.75)"/>
<path d="M0 0 C0.99 0 1.98 0 3 0 C1.56036361 3.35915158 -0.12416589 5.71624938 -3 8 C-5.125 8 -5.125 8 -7 7 C-8.25 4.9375 -8.25 4.9375 -9 3 C-8.2575 3.2475 -7.515 3.495 -6.75 3.75 C-5.8425 3.8325 -4.935 3.915 -4 4 C-1.85410577 2.10413616 -1.85410577 2.10413616 0 0 Z " fill="#8C8B6F" transform="translate(16,9)"/>
</svg>
