<svg width="35" height="35" viewBox="0 0 35 35" fill="none" xmlns="http://www.w3.org/2000/svg">
<path d="M28.5674 9.75025C27.111 9.43872 25.7922 8.67014 24.8032 7.55656C23.8142 6.44298 23.2068 5.04262 23.0695 3.55963V2.9165H18.0455V22.8548C18.0424 23.7375 17.7628 24.5971 17.246 25.3127C16.7292 26.0282 16.0012 26.5639 15.1642 26.8444C14.3272 27.1249 13.4235 27.1361 12.5798 26.8764C11.7362 26.6168 10.9951 26.0993 10.4607 25.3967C9.91804 24.6824 9.61701 23.8138 9.60127 22.9168C9.58553 22.0199 9.8559 21.1413 10.3732 20.4083C10.8904 19.6754 11.6277 19.1263 12.4781 18.8407C13.3285 18.555 14.2477 18.5476 15.1026 18.8196V13.7155C13.1963 13.4519 11.2554 13.7908 9.55122 14.6848C7.84707 15.5787 6.46494 16.9829 5.59816 18.701C4.73139 20.4192 4.42332 22.3653 4.71704 24.2671C5.01077 26.1689 5.89161 27.9314 7.23634 29.308C8.51874 30.6201 10.163 31.5203 11.9594 31.8938C13.7557 32.2672 15.6226 32.0969 17.3217 31.4045C19.0208 30.7122 20.475 29.5292 21.4988 28.0067C22.5225 26.4841 23.0694 24.691 23.0695 22.8563V12.6684C25.0998 14.1199 27.5342 14.8982 30.0301 14.8938V9.90192C29.5386 9.90253 29.0483 9.85169 28.5674 9.75025Z" fill="#F3E8D2"/>
</svg>
